# xmcd
#
# Track frame offsets:
#	150
#	27442
#	54667
#	78827
#	106370
#	133315
#
# Disc length: 2134 seconds
#
# Revision: 1
# Processed by: cddbd v1.5.2PL0 Copyright (c) Steve Scherf et al.
# Submitted via: EasyCDDAExtractor 2010.6.0.0
#
DISCID=4c085406
DTITLE=Dan Hartman starring Loleatta Holloway - Keep The Fire Burnin'
DYEAR=1994
DGENRE=Dance
TTITLE0=Keep The Fire Burnin' (Tee's Mix)
TTITLE1=Keep The Fire Burnin' (Tee's Dub)
TTITLE2=Keep The Fire Burnin' (Tee's Freeze Mix)
TTITLE3=Keep The Fire Burnin' (Frankie Knuckles Classic Throwback Mix)
TTITLE4=Keep The Fire Burnin' (Todd Terry 12 Inch LP Mix)
TTITLE5=Keep The Fire Burnin' (M. Brauer LP Mix)
EXTD=YEAR: 1994
EXTT0=
EXTT1=
EXTT2=
EXTT3=
EXTT4=
EXTT5=
PLAYORDER=
